<?xml version="1.0" encoding="iso-8859-1"?>
<!-- Generator: Adobe Illustrator 19.0.0, SVG Export Plug-In . SVG Version: 6.00 Build 0)  -->
<svg version="1.1" id="Layer_1" xmlns="http://www.w3.org/2000/svg" xmlns:xlink="http://www.w3.org/1999/xlink" x="0px" y="0px"
	 viewBox="0 0 512 512" style="enable-background:new 0 0 512 512;" xml:space="preserve">
<g>
	<g>
		<path d="M256,0c-60.496,0-109.714,49.232-109.714,109.746v219.366c0,60.513,49.219,109.746,109.714,109.746
			s109.714-49.232,109.714-109.746V109.746C365.714,49.232,316.496,0,256,0z M347.429,329.112c0,50.433-41.013,91.46-91.429,91.46
			s-91.429-41.027-91.429-91.46V109.746c0-50.433,41.013-91.46,91.429-91.46s91.429,41.027,91.429,91.46V329.112z"/>
	</g>
</g>
<g>
	<g>
		<path d="M393.143,210.286c-5.049,0-9.143,4.094-9.143,9.143v118.804c0,63.344-59.808,118.911-127.991,118.911
			C187.817,457.143,128,401.576,128,338.232V219.429c0-5.049-4.094-9.143-9.143-9.143s-9.143,4.094-9.143,9.143v118.804
			c0,70.2,63.102,131.95,137.143,136.73v18.752h-36.571V512h91.429v-18.286h-36.571v-18.751
			c74.04-4.772,137.143-66.527,137.143-136.731V219.429C402.286,214.379,398.192,210.286,393.143,210.286z"/>
	</g>
</g>
<g>
</g>
<g>
</g>
<g>
</g>
<g>
</g>
<g>
</g>
<g>
</g>
<g>
</g>
<g>
</g>
<g>
</g>
<g>
</g>
<g>
</g>
<g>
</g>
<g>
</g>
<g>
</g>
<g>
</g>
</svg>
